<svg id="visual" viewBox="0 0 960 540" width="960" height="540" xmlns="http://www.w3.org/2000/svg" xmlns:xlink="http://www.w3.org/1999/xlink" version="1.1"><rect x="0" y="0" width="960" height="540" fill="#fff"></rect><defs><linearGradient id="grad1_0" x1="43.8%" y1="0%" x2="100%" y2="100%"><stop offset="14.444444444444446%" stop-color="#ffffff" stop-opacity="1"></stop><stop offset="85.55555555555554%" stop-color="#ffffff" stop-opacity="1"></stop></linearGradient></defs><defs><linearGradient id="grad2_0" x1="0%" y1="0%" x2="56.3%" y2="100%"><stop offset="14.444444444444446%" stop-color="#ffffff" stop-opacity="1"></stop><stop offset="85.55555555555554%" stop-color="#ffffff" stop-opacity="1"></stop></linearGradient></defs><g transform="translate(960, 0)"><path d="M0 405C-50.7 383.2 -101.4 361.4 -137.4 331.7C-173.3 301.9 -194.6 264.2 -236.9 236.9C-279.2 209.6 -342.6 192.7 -374.2 155C-405.7 117.2 -405.4 58.6 -405 0L0 0Z" fill="#0099ff"></path></g><g transform="translate(0, 540)"><path d="M0 -405C43.6 -379.8 87.1 -354.6 140.8 -340C194.5 -325.4 258.3 -321.3 286.4 -286.4C314.4 -251.5 306.8 -185.7 320.6 -132.8C334.4 -79.9 369.7 -40 405 0L0 0Z" fill="#0099ff"></path></g></svg>