<svg id="visual" viewBox="0 0 900 600" width="900" height="600" xmlns="http://www.w3.org/2000/svg" xmlns:xlink="http://www.w3.org/1999/xlink" version="1.1"><rect x="0" y="0" width="900" height="600" fill="#fff"></rect><defs><linearGradient id="grad1_0" x1="33.3%" y1="0%" x2="100%" y2="100%"><stop offset="20%" stop-color="#ffffff" stop-opacity="1"></stop><stop offset="80%" stop-color="#ffffff" stop-opacity="1"></stop></linearGradient></defs><defs><linearGradient id="grad2_0" x1="0%" y1="0%" x2="66.7%" y2="100%"><stop offset="20%" stop-color="#ffffff" stop-opacity="1"></stop><stop offset="80%" stop-color="#ffffff" stop-opacity="1"></stop></linearGradient></defs><g transform="translate(900, 0)"><path d="M0 351.5C-45 346.2 -90.1 340.9 -134.5 324.8C-179 308.7 -222.9 281.8 -244 244C-265 206.1 -263.1 157.3 -277.2 114.8C-291.3 72.3 -321.4 36.2 -351.5 0L0 0Z" fill="#0099ff"></path></g><g transform="translate(0, 600)"><path d="M0 -351.5C41.1 -337 82.1 -322.4 127.8 -308.6C173.5 -294.7 223.8 -281.5 248.6 -248.6C273.3 -215.6 272.6 -163 285.5 -118.2C298.4 -73.5 325 -36.8 351.5 0L0 0Z" fill="#0099ff"></path></g></svg>