<svg id="visual" viewBox="0 0 900 600" width="900" height="600" xmlns="http://www.w3.org/2000/svg" xmlns:xlink="http://www.w3.org/1999/xlink" version="1.1"><rect x="0" y="0" width="900" height="600" fill="#FFF"></rect><defs><linearGradient id="grad1_0" x1="33.3%" y1="0%" x2="100%" y2="100%"><stop offset="20%" stop-color="#ffffff" stop-opacity="1"></stop><stop offset="80%" stop-color="#ffffff" stop-opacity="1"></stop></linearGradient></defs><defs><linearGradient id="grad2_0" x1="0%" y1="0%" x2="66.7%" y2="100%"><stop offset="20%" stop-color="#ffffff" stop-opacity="1"></stop><stop offset="80%" stop-color="#ffffff" stop-opacity="1"></stop></linearGradient></defs><g transform="translate(900, 0)"><path d="M0 378.6C-43.2 353 -86.5 327.5 -127.1 306.7C-167.6 286 -205.5 270.1 -245.4 245.4C-285.3 220.7 -327.2 187.2 -349.8 144.9C-372.3 102.5 -375.4 51.3 -378.6 0L0 0Z" fill="#0099ff"></path></g><g transform="translate(0, 600)"><path d="M0 -378.6C37.6 -348.4 75.2 -318.2 126.7 -305.8C178.2 -293.4 243.5 -298.7 267.7 -267.7C291.9 -236.7 274.8 -169.3 286.4 -118.6C298 -68 338.3 -34 378.6 0L0 0Z" fill="#0099ff"></path></g></svg>